<svg width="16" height="17" viewBox="0 0 16 17" fill="none" xmlns="http://www.w3.org/2000/svg">
<path fill-rule="evenodd" clip-rule="evenodd" d="M8.0001 14.5299C4.4713 14.5299 1.6001 11.6587 1.6001 8.12986C1.6001 4.60106 4.4713 1.72986 8.0001 1.72986C11.5289 1.72986 14.4001 4.60106 14.4001 8.12986C14.4001 11.6587 11.5289 14.5299 8.0001 14.5299ZM9.8345 10.7643C9.6297 10.7643 9.4249 10.6859 9.2689 10.5299L7.4345 8.69546C7.2841 8.54586 7.2001 8.34186 7.2001 8.12986V4.92986C7.2001 4.48826 7.5577 4.12986 8.0001 4.12986C8.4425 4.12986 8.8001 4.48826 8.8001 4.92986V7.79866L10.4001 9.39866C10.7129 9.71146 10.7129 10.2171 10.4001 10.5299C10.2441 10.6859 10.0393 10.7643 9.8345 10.7643Z" fill="#8C9196"/>
</svg>
