<svg width="18" height="18" viewBox="0 0 18 18" fill="none" xmlns="http://www.w3.org/2000/svg">
<g clip-path="url(#clip0_985_12517)">
<path d="M6.06614 0.243C5.98515 0.387001 5.73314 0.882 5.50814 1.35L5.08514 2.196L4.20314 2.439C3.38414 2.673 3.29414 2.718 2.91614 3.141C2.48414 3.627 2.52014 3.609 0.999145 3.834L-0.0268555 3.987L0.0271445 4.599C0.0811445 5.265 0.342145 5.94 0.657145 6.282C1.07114 6.723 1.50314 6.858 2.79014 6.948C3.45614 6.993 4.03214 7.056 4.05914 7.092C4.08614 7.128 4.44614 8.145 4.85114 9.36L5.59815 11.565L4.66214 13.671C4.14914 14.832 3.66314 15.813 3.59114 15.849C3.51914 15.885 3.29414 15.957 3.08714 16.011C2.60114 16.146 2.17814 16.506 1.97114 16.965C1.75514 17.433 1.75514 17.595 1.98014 17.82C2.15114 17.991 2.27714 18 4.44614 18H6.72315L6.68714 17.784C6.65114 17.622 6.70514 17.532 6.89415 17.406C7.02914 17.307 7.29914 17.091 7.48814 16.911C7.92015 16.497 7.92914 16.236 7.54214 15.48C7.26314 14.949 7.24514 14.85 7.25415 14.049C7.25415 13.572 7.29014 12.861 7.33514 12.465C7.42515 11.547 7.29914 11.259 6.66915 10.944C6.10214 10.656 5.76014 10.242 5.76014 9.855C5.76014 9.594 5.79614 9.549 6.03014 9.495C6.19214 9.459 6.43514 9.27 6.66014 9C6.91215 8.703 7.14614 8.523 7.40715 8.433L7.78514 8.307L7.83014 7.713L7.87514 7.11L8.65814 7.794C9.54014 8.55 9.83714 9.054 10.1251 10.215C10.4221 11.43 10.8091 11.88 12.1501 12.564C13.5901 13.293 14.3821 14.256 14.5531 15.498C14.6161 15.912 14.8321 15.957 15.1651 15.615C15.4891 15.291 15.4531 14.832 15.0121 13.554C14.6701 12.582 14.6251 12.366 14.6071 11.538L14.5891 10.611L13.6441 9.594C12.5371 8.388 12.1411 8.019 10.8991 7.02C9.78314 6.129 9.06314 5.418 8.77515 4.914C8.65814 4.707 8.31614 3.969 8.01915 3.258C7.21814 1.395 6.50714 0 6.33614 0C6.26414 0 6.13814 0.108002 6.06614 0.243Z" fill="#3E3E3E"/>
<path d="M15.9661 7.60503C15.9391 7.67703 15.9571 7.93803 16.0111 8.19003C16.0651 8.44203 16.1101 8.93703 16.1101 9.29703C16.1101 9.91803 16.1191 9.95403 16.3801 10.098C16.5871 10.215 16.6501 10.314 16.6501 10.521C16.6501 10.872 16.3981 11.016 15.9391 10.935C15.6241 10.881 15.5881 10.899 15.5341 11.115C15.4531 11.421 15.6241 12.312 15.9031 13.095C16.4251 14.562 16.4971 15.174 16.2091 15.795C15.9841 16.281 15.6691 16.551 15.1201 16.74C14.7871 16.848 14.5981 16.983 14.4091 17.262C14.2201 17.514 14.0041 17.676 13.6621 17.811L13.1851 18.009L14.2831 17.973C15.2551 17.937 15.4351 17.91 15.8851 17.694C16.4881 17.388 16.9561 16.821 17.1541 16.128C17.3521 15.462 17.2891 14.481 17.0191 13.923C16.8031 13.473 16.8031 13.482 17.2351 12.906C17.7661 12.213 17.9461 11.655 17.9461 10.755C17.9461 10.125 17.9011 9.83703 17.7391 9.45003C17.4961 8.85603 16.8031 7.79403 16.5331 7.60503C16.2901 7.43403 16.0291 7.43403 15.9661 7.60503Z" fill="#3E3E3E"/>
<path d="M9.93578 14.256C9.42279 14.481 9.20679 14.895 8.87379 16.281C8.70279 16.983 8.49579 17.658 8.42379 17.775L8.27979 18H8.70279C9.07179 18 9.10779 17.982 8.96379 17.883C8.81979 17.784 8.81079 17.73 8.90079 17.559C9.03579 17.307 9.35079 17.19 9.87278 17.19H10.2868L9.91778 16.92C9.41378 16.56 9.23379 16.191 9.30579 15.678C9.42279 14.823 10.0168 14.328 10.9348 14.301C11.2948 14.292 11.3398 14.274 11.1598 14.22C10.8088 14.103 10.2418 14.121 9.93578 14.256Z" fill="#3E3E3E"/>
</g>
<defs>
<clipPath id="clip0_985_12517">
<rect width="18" height="18" fill="white"/>
</clipPath>
</defs>
</svg>
