<svg width="18" height="19" viewBox="0 0 18 19" fill="none" xmlns="http://www.w3.org/2000/svg">
<g clip-path="url(#clip0_985_12361)">
<path d="M6.06614 1.01302C5.98515 1.15702 5.73314 1.65202 5.50814 2.12002L5.08514 2.96602L4.20314 3.20902C3.38414 3.44302 3.29414 3.48802 2.91614 3.91102C2.48414 4.39702 2.52014 4.37902 0.999145 4.60402L-0.0268555 4.75702L0.0271445 5.36902C0.0811445 6.03502 0.342145 6.71002 0.657145 7.05202C1.07114 7.49302 1.50314 7.62802 2.79014 7.71802C3.45614 7.76302 4.03214 7.82602 4.05914 7.86202C4.08614 7.89802 4.44614 8.91502 4.85114 10.13L5.59815 12.335L4.66214 14.441C4.14914 15.602 3.66314 16.583 3.59114 16.619C3.51914 16.655 3.29414 16.727 3.08714 16.781C2.60114 16.916 2.17814 17.276 1.97114 17.735C1.75514 18.203 1.75514 18.365 1.98014 18.59C2.15114 18.761 2.27714 18.77 4.44614 18.77H6.72315L6.68714 18.554C6.65114 18.392 6.70514 18.302 6.89415 18.176C7.02914 18.077 7.29914 17.861 7.48814 17.681C7.92015 17.267 7.92914 17.006 7.54214 16.25C7.26314 15.719 7.24514 15.62 7.25415 14.819C7.25415 14.342 7.29014 13.631 7.33514 13.235C7.42515 12.317 7.29914 12.029 6.66915 11.714C6.10214 11.426 5.76014 11.012 5.76014 10.625C5.76014 10.364 5.79614 10.319 6.03014 10.265C6.19214 10.229 6.43514 10.04 6.66014 9.77002C6.91215 9.47302 7.14614 9.29302 7.40715 9.20302L7.78514 9.07702L7.83014 8.48302L7.87514 7.88002L8.65814 8.56402C9.54014 9.32002 9.83714 9.82402 10.1251 10.985C10.4221 12.2 10.8091 12.65 12.1501 13.334C13.5901 14.063 14.3821 15.026 14.5531 16.268C14.6161 16.682 14.8321 16.727 15.1651 16.385C15.4891 16.061 15.4531 15.602 15.0121 14.324C14.6701 13.352 14.6251 13.136 14.6071 12.308L14.5891 11.381L13.6441 10.364C12.5371 9.15802 12.1411 8.78902 10.8991 7.79002C9.78314 6.89902 9.06314 6.18802 8.77515 5.68402C8.65814 5.47702 8.31614 4.73902 8.01915 4.02802C7.21814 2.16502 6.50714 0.77002 6.33614 0.77002C6.26414 0.77002 6.13814 0.878021 6.06614 1.01302Z" fill="#3E3E3E"/>
<path d="M15.9661 8.37505C15.9391 8.44705 15.9571 8.70805 16.0111 8.96005C16.0651 9.21205 16.1101 9.70705 16.1101 10.0671C16.1101 10.6881 16.1191 10.7241 16.3801 10.8681C16.5871 10.9851 16.6501 11.0841 16.6501 11.2911C16.6501 11.6421 16.3981 11.7861 15.9391 11.7051C15.6241 11.6511 15.5881 11.6691 15.5341 11.8851C15.4531 12.1911 15.6241 13.0821 15.9031 13.8651C16.4251 15.3321 16.4971 15.9441 16.2091 16.5651C15.9841 17.0511 15.6691 17.3211 15.1201 17.5101C14.7871 17.6181 14.5981 17.7531 14.4091 18.0321C14.2201 18.2841 14.0041 18.4461 13.6621 18.5811L13.1851 18.7791L14.2831 18.7431C15.2551 18.7071 15.4351 18.6801 15.8851 18.4641C16.4881 18.1581 16.9561 17.5911 17.1541 16.8981C17.3521 16.2321 17.2891 15.2511 17.0191 14.6931C16.8031 14.2431 16.8031 14.2521 17.2351 13.6761C17.7661 12.9831 17.9461 12.4251 17.9461 11.5251C17.9461 10.8951 17.9011 10.6071 17.7391 10.2201C17.4961 9.62605 16.8031 8.56405 16.5331 8.37505C16.2901 8.20405 16.0291 8.20405 15.9661 8.37505Z" fill="#3E3E3E"/>
<path d="M9.93603 15.026C9.42303 15.251 9.20703 15.665 8.87403 17.051C8.70303 17.753 8.49603 18.428 8.42403 18.545L8.28003 18.77H8.70303C9.07203 18.77 9.10803 18.752 8.96403 18.653C8.82003 18.554 8.81103 18.5 8.90103 18.329C9.03603 18.077 9.35103 17.96 9.87303 17.96H10.287L9.91803 17.69C9.41403 17.33 9.23403 16.961 9.30603 16.448C9.42303 15.593 10.017 15.098 10.935 15.071C11.295 15.062 11.34 15.044 11.16 14.99C10.809 14.873 10.242 14.891 9.93603 15.026Z" fill="#3E3E3E"/>
</g>
<defs>
<clipPath id="clip0_985_12361">
<rect width="18" height="18" fill="white" transform="translate(0 0.77002)"/>
</clipPath>
</defs>
</svg>
