<svg width="24" height="25" viewBox="0 0 24 25" fill="none" xmlns="http://www.w3.org/2000/svg">
<g clip-path="url(#clip0_1072_1532)">
<path d="M8.08811 0.453882C7.98011 0.645884 7.64411 1.30588 7.34411 1.92988L6.78011 3.05788L5.60411 3.38188C4.51211 3.69388 4.39211 3.75388 3.88811 4.31788C3.31211 4.96588 3.36011 4.94188 1.33211 5.24188L-0.0358887 5.44588L0.0361113 6.26188C0.108111 7.14988 0.456111 8.04988 0.876111 8.50588C1.42811 9.09388 2.00411 9.27388 3.72011 9.39388C4.60811 9.45388 5.37611 9.53788 5.41211 9.58588C5.44811 9.63388 5.92811 10.9899 6.46811 12.6099L7.46411 15.5499L6.21611 18.3579C5.53211 19.9059 4.88411 21.2139 4.78811 21.2619C4.69211 21.3099 4.39211 21.4059 4.11611 21.4779C3.46811 21.6579 2.90411 22.1379 2.62811 22.7499C2.34011 23.3739 2.34011 23.5899 2.64011 23.8899C2.86811 24.1179 3.03611 24.1299 5.92811 24.1299H8.96411L8.91611 23.8419C8.86811 23.6259 8.94011 23.5059 9.19211 23.3379C9.37211 23.2059 9.73211 22.9179 9.98411 22.6779C10.5601 22.1259 10.5721 21.7779 10.0561 20.7699C9.68411 20.0619 9.66011 19.9299 9.67211 18.8619C9.67211 18.2259 9.72011 17.2779 9.78011 16.7499C9.90011 15.5259 9.73211 15.1419 8.89211 14.7219C8.13611 14.3379 7.68011 13.7859 7.68011 13.2699C7.68011 12.9219 7.72811 12.8619 8.04011 12.7899C8.25611 12.7419 8.58011 12.4899 8.88011 12.1299C9.21611 11.7339 9.52811 11.4939 9.87611 11.3739L10.3801 11.2059L10.4401 10.4139L10.5001 9.60988L11.5441 10.5219C12.7201 11.5299 13.1161 12.2019 13.5001 13.7499C13.8961 15.3699 14.4121 15.9699 16.2001 16.8819C18.1201 17.8539 19.1761 19.1379 19.4041 20.7939C19.4881 21.3459 19.7761 21.4059 20.2201 20.9499C20.6521 20.5179 20.6041 19.9059 20.0161 18.2019C19.5601 16.9059 19.5001 16.6179 19.4761 15.5139L19.4521 14.2779L18.1921 12.9219C16.7161 11.3139 16.1881 10.8219 14.5321 9.48988C13.0441 8.30188 12.0841 7.35388 11.7001 6.68188C11.5441 6.40588 11.0881 5.42188 10.6921 4.47388C9.62411 1.98988 8.67611 0.129883 8.44811 0.129883C8.35211 0.129883 8.18411 0.273882 8.08811 0.453882Z" fill="white"/>
<path d="M21.2881 10.2701C21.2521 10.3661 21.2761 10.7141 21.3481 11.0501C21.4201 11.3861 21.4801 12.0461 21.4801 12.5261C21.4801 13.3541 21.4921 13.4021 21.8401 13.5941C22.1161 13.7501 22.2001 13.8821 22.2001 14.1581C22.2001 14.6261 21.8641 14.8181 21.2521 14.7101C20.8321 14.6381 20.7841 14.6621 20.7121 14.9501C20.6041 15.3581 20.8321 16.5461 21.2041 17.5901C21.9001 19.5461 21.9961 20.3621 21.6121 21.1901C21.3121 21.8381 20.8921 22.1981 20.1601 22.4501C19.7161 22.5941 19.4641 22.7741 19.2121 23.1461C18.9601 23.4821 18.6721 23.6981 18.2161 23.8781L17.5801 24.1421L19.0441 24.0941C20.3401 24.0461 20.5801 24.0101 21.1801 23.7221C21.9841 23.3141 22.6081 22.5581 22.8721 21.6341C23.1361 20.7461 23.0521 19.4381 22.6921 18.6941C22.4041 18.0941 22.4041 18.1061 22.9801 17.3381C23.6881 16.4141 23.9281 15.6701 23.9281 14.4701C23.9281 13.6301 23.8681 13.2461 23.6521 12.7301C23.3281 11.9381 22.4041 10.5221 22.0441 10.2701C21.7201 10.0421 21.3721 10.0421 21.2881 10.2701Z" fill="white"/>
<path d="M13.248 19.1379C12.564 19.4379 12.276 19.9899 11.832 21.8379C11.604 22.7739 11.328 23.6739 11.232 23.8299L11.04 24.1299H11.604C12.096 24.1299 12.144 24.1059 11.952 23.9739C11.76 23.8419 11.748 23.7699 11.868 23.5419C12.048 23.2059 12.468 23.0499 13.164 23.0499H13.716L13.224 22.6899C12.552 22.2099 12.312 21.7179 12.408 21.0339C12.564 19.8939 13.356 19.2339 14.58 19.1979C15.06 19.1859 15.12 19.1619 14.88 19.0899C14.412 18.9339 13.656 18.9579 13.248 19.1379Z" fill="white"/>
</g>
<defs>
<clipPath id="clip0_1072_1532">
<rect width="24" height="24" fill="white" transform="translate(0 0.129883)"/>
</clipPath>
</defs>
</svg>
