<svg width="16" height="17" viewBox="0 0 16 17" fill="none" xmlns="http://www.w3.org/2000/svg">
<path fill-rule="evenodd" clip-rule="evenodd" d="M6 10.1299C3.791 10.1299 2 8.33888 2 6.12988C2 3.92088 3.791 2.12988 6 2.12988C8.209 2.12988 10 3.92088 10 6.12988C10 8.33888 8.209 10.1299 6 10.1299ZM15.707 14.4229L10.887 9.60288C11.585 8.62188 12 7.42588 12 6.12988C12 2.81688 9.313 0.129883 6 0.129883C2.687 0.129883 0 2.81688 0 6.12988C0 9.44288 2.687 12.1299 6 12.1299C7.296 12.1299 8.492 11.7149 9.473 11.0169L14.293 15.8369C14.488 16.0319 14.744 16.1299 15 16.1299C15.256 16.1299 15.512 16.0319 15.707 15.8369C16.098 15.4459 16.098 14.8139 15.707 14.4229Z" fill="#5C5F62"/>
</svg>
