<svg width="16" height="16" viewBox="0 0 16 16" fill="none" xmlns="http://www.w3.org/2000/svg">
<path fill-rule="evenodd" clip-rule="evenodd" d="M6 10C3.791 10 2 8.209 2 6C2 3.791 3.791 2 6 2C8.209 2 10 3.791 10 6C10 8.209 8.209 10 6 10ZM15.707 14.293L10.887 9.473C11.585 8.492 12 7.296 12 6C12 2.687 9.313 0 6 0C2.687 0 0 2.687 0 6C0 9.313 2.687 12 6 12C7.296 12 8.492 11.585 9.473 10.887L14.293 15.707C14.488 15.902 14.744 16 15 16C15.256 16 15.512 15.902 15.707 15.707C16.098 15.316 16.098 14.684 15.707 14.293Z" fill="#5C5F62"/>
</svg>
