<svg width="14" height="14" viewBox="0 0 14 14" fill="none" xmlns="http://www.w3.org/2000/svg">
<path d="M0.897052 1.05379L0.96967 0.96967C1.23594 0.703403 1.6526 0.679197 1.94621 0.897052L2.03033 0.96967L7 5.939L11.9697 0.96967C12.2359 0.703403 12.6526 0.679197 12.9462 0.897052L13.0303 0.96967C13.2966 1.23594 13.3208 1.6526 13.1029 1.94621L13.0303 2.03033L8.061 7L13.0303 11.9697C13.2966 12.2359 13.3208 12.6526 13.1029 12.9462L13.0303 13.0303C12.7641 13.2966 12.3474 13.3208 12.0538 13.1029L11.9697 13.0303L7 8.061L2.03033 13.0303C1.76406 13.2966 1.3474 13.3208 1.05379 13.1029L0.96967 13.0303C0.703403 12.7641 0.679197 12.3474 0.897052 12.0538L0.96967 11.9697L5.939 7L0.96967 2.03033C0.703403 1.76406 0.679197 1.3474 0.897052 1.05379L0.96967 0.96967L0.897052 1.05379Z" fill="#5C5F62"/>
</svg>
