<svg width="14" height="14" viewBox="0 0 14 14" fill="none" xmlns="http://www.w3.org/2000/svg">
<path fill-rule="evenodd" clip-rule="evenodd" d="M7.33335 13.53C3.80455 13.53 0.93335 10.6588 0.93335 7.12998C0.93335 3.60118 3.80455 0.72998 7.33335 0.72998C10.8621 0.72998 13.7333 3.60118 13.7333 7.12998C13.7333 10.6588 10.8621 13.53 7.33335 13.53ZM9.16775 9.76438C8.96295 9.76438 8.75815 9.68598 8.60215 9.52998L6.76775 7.69558C6.61735 7.54598 6.53335 7.34198 6.53335 7.12998V3.92998C6.53335 3.48838 6.89095 3.12998 7.33335 3.12998C7.77575 3.12998 8.13335 3.48838 8.13335 3.92998V6.79878L9.73335 8.39878C10.0461 8.71158 10.0461 9.21718 9.73335 9.52998C9.57735 9.68598 9.37255 9.76438 9.16775 9.76438Z" fill="#6D7175"/>
</svg>
