<svg width="16" height="16" viewBox="0 0 16 16" fill="none" xmlns="http://www.w3.org/2000/svg">
<g clip-path="url(#clip0_809_3928)">
<path fill-rule="evenodd" clip-rule="evenodd" d="M14.4001 6.4C14.4001 2.864 11.5361 0 8.0001 0C4.4641 0 1.6001 2.864 1.6001 6.4C1.6001 6.52 1.6001 6.632 1.6081 6.752C1.7121 9.592 3.2001 12.848 7.3121 15.784C7.7201 16.072 8.2801 16.072 8.6881 15.784C12.8001 12.848 14.2881 9.592 14.3921 6.752C14.4001 6.63202 14.4001 6.51997 14.4001 6.4ZM9.6969 8.0968C10.1473 7.6472 10.4001 7.0368 10.4001 6.4C10.4001 5.7632 10.1465 5.1536 9.6969 4.7032C9.2473 4.2528 8.6369 4 8.0001 4C7.3633 4 6.7537 4.2536 6.3033 4.7032C5.8529 5.1528 5.6001 5.7632 5.6001 6.4C5.6001 7.0368 5.8529 7.6472 6.3033 8.0968C6.7529 8.5472 7.3633 8.8 8.0001 8.8C8.6361 8.8 9.2465 8.5472 9.6969 8.0968Z" fill="white"/>
</g>
<defs>
<clipPath id="clip0_809_3928">
<rect width="16" height="16" fill="white"/>
</clipPath>
</defs>
</svg>
