<svg width="18" height="21" viewBox="0 0 18 21" fill="none" xmlns="http://www.w3.org/2000/svg">
<path fill-rule="evenodd" clip-rule="evenodd" d="M0 1.12988C0 0.577598 0.449317 0.129883 1.00358 0.129883H2.50894C3.34034 0.129883 4.01431 0.801455 4.01431 1.62988V2.19043L16.5883 3.09806C17.4651 3.15266 18.1089 3.94069 17.9846 4.80727L17.1194 10.842C17.0135 11.581 16.3783 12.1299 15.6292 12.1299H4.01431V14.1299H14.0572C15.72 14.1299 17.068 15.473 17.068 17.1299C17.068 18.7867 15.72 20.1299 14.0572 20.1299C12.3945 20.1299 11.0465 18.7867 11.0465 17.1299C11.0465 16.7792 11.1069 16.4427 11.2178 16.1299H5.85015C5.9611 16.4427 6.02147 16.7792 6.02147 17.1299C6.02147 18.7867 4.67352 20.1299 3.01073 20.1299C1.34795 20.1299 0 18.7867 0 17.1299C0 15.8237 0.837794 14.7124 2.00716 14.3006V3.13912C2.00711 3.13361 2.00711 3.12809 2.00716 3.12256V2.12988H1.00358C0.449317 2.12988 0 1.68217 0 1.12988ZM4.01431 4.19433V10.1299H15.194L15.9208 5.06039L4.01431 4.19433ZM13.0537 17.1299C13.0537 16.5776 13.503 16.1299 14.0572 16.1299C14.6115 16.1299 15.0608 16.5776 15.0608 17.1299C15.0608 17.6822 14.6115 18.1299 14.0572 18.1299C13.503 18.1299 13.0537 17.6822 13.0537 17.1299ZM2.00716 17.1299C2.00716 16.5776 2.45647 16.1299 3.01073 16.1299C3.56499 16.1299 4.01431 16.5776 4.01431 17.1299C4.01431 17.6822 3.56499 18.1299 3.01073 18.1299C2.45647 18.1299 2.00716 17.6822 2.00716 17.1299Z" fill="#5C5F62"/>
</svg>
