<svg width="36" height="41" viewBox="0 0 36 41" fill="none" xmlns="http://www.w3.org/2000/svg">
<path d="M17.0186 0.744205L1.58017 8.9399C1.15194 9.16721 0.884277 9.61237 0.884277 10.0973V30.6702C0.884277 31.5012 1.35123 32.2615 2.09221 32.6373L17.2314 40.316C17.7144 40.561 18.2854 40.561 18.7683 40.316L33.9076 32.6373C34.6486 32.2615 35.1155 31.501 35.1155 30.6702V10.0973C35.1155 9.61237 34.8479 9.16721 34.4195 8.9399L18.9813 0.744205C18.3677 0.418598 17.6323 0.418598 17.0186 0.744205Z" fill="#FFCE94"/>
<path d="M18 40.5C18.2635 40.5 18.5271 40.4388 18.7685 40.3163L33.9078 32.6376C34.6487 32.2618 35.1157 31.5013 35.1157 30.6704V10.0973C35.1157 9.88316 35.061 9.67819 34.9658 9.49487L18 18.531V40.5Z" fill="#FCB043"/>
<path d="M18 18.5311L1.03429 9.49475C0.938974 9.67807 0.884277 9.88304 0.884277 10.0972V30.6702C0.884277 31.5012 1.35123 32.2615 2.09221 32.6374L17.2314 40.316C17.4729 40.4385 17.7364 40.4997 17.9998 40.4997V18.5311H18Z" fill="#E2791B"/>
<path d="M24.0488 3.4342L6.87866 12.5781V15.504C6.87866 15.7848 7.03355 16.0427 7.2813 16.1749L10.2652 17.7653C10.502 17.8914 10.7878 17.7199 10.7878 17.4516V14.7208L27.9846 5.52364L24.0488 3.4342Z" fill="#DEF2FC"/>
<path d="M20.4734 34.6616L25.054 32.4709C25.6405 32.1905 26.0078 31.592 25.9923 30.9421L25.9919 30.9218C25.9792 30.3857 25.41 30.0473 24.9329 30.2924L20.4735 32.5826V34.6616H20.4734Z" fill="#403A46"/>
<path d="M20.4734 37.8559L22.9888 36.6874C23.5843 36.4105 23.9595 35.8072 23.9439 35.1506C23.9312 34.6125 23.3588 34.2744 22.8814 34.5229L20.4734 35.7766V37.8559Z" fill="#403A46"/>
<path d="M6.87842 12.6075V15.504C6.87842 15.7848 7.0333 16.0427 7.28106 16.1749L10.265 17.7653C10.5018 17.8915 10.7876 17.7199 10.7876 17.4516V14.7208L10.8167 14.7052C9.80604 14.1669 8.16446 13.2925 6.87842 12.6075Z" fill="#B6C8CE"/>
</svg>
