<svg width="14" height="14" viewBox="0 0 14 14" fill="none" xmlns="http://www.w3.org/2000/svg">
<path fill-rule="evenodd" clip-rule="evenodd" d="M12.2001 1.97002C12.8628 1.97002 13.4001 2.50728 13.4001 3.17002V11.97C13.4001 12.6328 12.8628 13.17 12.2001 13.17H1.8001C1.13736 13.17 0.600098 12.6328 0.600098 11.97V3.17002C0.600098 2.50728 1.13736 1.97002 1.8001 1.97002H3.0001V1.17002C3.0001 0.728418 3.3577 0.370018 3.8001 0.370018C4.2425 0.370018 4.6001 0.728418 4.6001 1.17002V1.97002H9.4001V1.17002C9.4001 0.728418 9.7577 0.370018 10.2001 0.370018C10.6425 0.370018 11.0001 0.728418 11.0001 1.17002V1.97002H12.2001ZM11.8001 5.17002H2.2001V11.57H11.8001V5.17002Z" fill="#8C9196"/>
</svg>
