<svg width="16" height="16" viewBox="0 0 16 16" fill="none" xmlns="http://www.w3.org/2000/svg">
<path fill-rule="evenodd" clip-rule="evenodd" d="M13.2001 3.2001C13.8628 3.2001 14.4001 3.73736 14.4001 4.4001V13.2001C14.4001 13.8628 13.8628 14.4001 13.2001 14.4001H2.8001C2.13736 14.4001 1.6001 13.8628 1.6001 13.2001V4.4001C1.6001 3.73736 2.13736 3.2001 2.8001 3.2001H4.0001V2.4001C4.0001 1.9585 4.3577 1.6001 4.8001 1.6001C5.2425 1.6001 5.6001 1.9585 5.6001 2.4001V3.2001H10.4001V2.4001C10.4001 1.9585 10.7577 1.6001 11.2001 1.6001C11.6425 1.6001 12.0001 1.9585 12.0001 2.4001V3.2001H13.2001ZM12.8001 6.4001H3.2001V12.8001H12.8001V6.4001Z" fill="#00A0AC"/>
</svg>
