<svg width="19" height="19" viewBox="0 0 19 19" fill="none" xmlns="http://www.w3.org/2000/svg">
<g clip-path="url(#clip0_1950_4042)">
<path d="M5.23083 18.0662C4.16037 18.0175 3.57886 17.8394 3.19208 17.6885C2.67958 17.489 2.3142 17.2515 1.92956 16.8674C1.54492 16.4833 1.30686 16.1179 1.10839 15.6054C0.957525 15.2186 0.779382 14.6371 0.7307 13.5666C0.677203 12.4095 0.666504 12.0623 0.666504 9.13069C0.666504 6.19907 0.678273 5.85241 0.730165 4.69421C0.778847 3.62375 0.95806 3.04331 1.10785 2.65546C1.30739 2.14296 1.54545 1.77758 1.92902 1.3924C2.31313 1.0083 2.67851 0.769702 3.19154 0.57123C3.57832 0.420369 4.15983 0.242226 5.2303 0.193544C6.38796 0.140582 6.73569 0.129883 9.66624 0.129883C12.5979 0.129883 12.9445 0.141652 14.1027 0.193544C15.1732 0.242226 15.7536 0.421439 16.1415 0.57123C16.654 0.769702 17.0193 1.0083 17.404 1.3924C17.7886 1.77651 18.0256 2.14242 18.2252 2.65492C18.376 3.0417 18.5542 3.62321 18.6028 4.69368C18.6558 5.85188 18.6665 6.19854 18.6665 9.13015C18.6665 12.0607 18.6558 12.4084 18.6028 13.5666C18.5542 14.6371 18.3749 15.2186 18.2252 15.6054C18.0256 16.1179 17.7881 16.4833 17.404 16.8674C17.0199 17.2515 16.654 17.489 16.1415 17.6885C15.7547 17.8394 15.1732 18.0175 14.1027 18.0662C12.9456 18.1192 12.5979 18.1299 9.66624 18.1299C6.73569 18.1299 6.38797 18.1197 5.23083 18.0662Z" fill="url(#paint0_radial_1950_4042)"/>
<path d="M5.23083 18.0662C4.16037 18.0175 3.57886 17.8394 3.19208 17.6885C2.67958 17.489 2.3142 17.2515 1.92956 16.8674C1.54492 16.4833 1.30686 16.1179 1.10839 15.6054C0.957525 15.2186 0.779382 14.6371 0.7307 13.5666C0.677203 12.4095 0.666504 12.0623 0.666504 9.13069C0.666504 6.19907 0.678273 5.85241 0.730165 4.69421C0.778847 3.62375 0.95806 3.04331 1.10785 2.65546C1.30739 2.14296 1.54545 1.77758 1.92902 1.3924C2.31313 1.0083 2.67851 0.769702 3.19154 0.57123C3.57832 0.420369 4.15983 0.242226 5.2303 0.193544C6.38796 0.140582 6.73569 0.129883 9.66624 0.129883C12.5979 0.129883 12.9445 0.141652 14.1027 0.193544C15.1732 0.242226 15.7536 0.421439 16.1415 0.57123C16.654 0.769702 17.0193 1.0083 17.404 1.3924C17.7886 1.77651 18.0256 2.14242 18.2252 2.65492C18.376 3.0417 18.5542 3.62321 18.6028 4.69368C18.6558 5.85188 18.6665 6.19854 18.6665 9.13015C18.6665 12.0607 18.6558 12.4084 18.6028 13.5666C18.5542 14.6371 18.3749 15.2186 18.2252 15.6054C18.0256 16.1179 17.7881 16.4833 17.404 16.8674C17.0199 17.2515 16.654 17.489 16.1415 17.6885C15.7547 17.8394 15.1732 18.0175 14.1027 18.0662C12.9456 18.1192 12.5979 18.1299 9.66624 18.1299C6.73569 18.1299 6.38797 18.1197 5.23083 18.0662Z" fill="url(#paint1_radial_1950_4042)"/>
<path d="M7.45645 9.16827C7.45645 7.93726 8.45411 6.93907 9.68512 6.93907C10.9161 6.93907 11.9143 7.93726 11.9143 9.16827C11.9143 10.3993 10.9161 11.3975 9.68512 11.3975C8.45411 11.3975 7.45645 10.3993 7.45645 9.16827ZM6.25139 9.16827C6.25139 11.0647 7.78867 12.602 9.68512 12.602C11.5816 12.602 13.1189 11.0647 13.1189 9.16827C13.1189 7.27182 11.5816 5.73454 9.68512 5.73454C7.78867 5.73454 6.25144 7.27171 6.25144 9.16827H6.25139ZM12.4524 5.59839C12.4523 5.7571 12.4993 5.91227 12.5875 6.04426C12.6756 6.17626 12.8009 6.27916 12.9475 6.33996C13.0941 6.40075 13.2554 6.41671 13.4111 6.38581C13.5667 6.35491 13.7098 6.27854 13.822 6.16636C13.9343 6.05418 14.0108 5.91123 14.0418 5.75558C14.0728 5.59993 14.057 5.43858 13.9963 5.29193C13.9357 5.14528 13.8329 5.01991 13.7009 4.93168C13.569 4.84345 13.4139 4.79633 13.2552 4.79627H13.2548C13.0421 4.79637 12.8381 4.8809 12.6876 5.03129C12.5372 5.18169 12.4526 5.38566 12.4524 5.59839ZM6.98354 14.6114C6.33158 14.5818 5.97722 14.4732 5.74173 14.3814C5.42952 14.2599 5.20676 14.1151 4.97255 13.8812C4.73834 13.6473 4.59337 13.4248 4.47236 13.1126C4.38056 12.8772 4.27196 12.5227 4.24232 11.8708C4.20991 11.1659 4.20343 10.9542 4.20343 9.16838C4.20343 7.38261 4.21044 7.17146 4.24232 6.466C4.27201 5.81404 4.38142 5.46027 4.47236 5.22419C4.5939 4.91198 4.73867 4.68922 4.97255 4.45501C5.20644 4.2208 5.42899 4.07583 5.74173 3.95482C5.97711 3.86302 6.33158 3.75442 6.98354 3.72478C7.68841 3.69236 7.90015 3.68589 9.68512 3.68589C11.4701 3.68589 11.682 3.69279 12.3875 3.72489C13.0395 3.75458 13.3932 3.86398 13.6293 3.95493C13.9415 4.07593 14.1643 4.22123 14.3985 4.45512C14.6327 4.68901 14.7771 4.91209 14.8987 5.22429C14.9905 5.45968 15.0991 5.81415 15.1287 6.46611C15.1611 7.17157 15.1676 7.38272 15.1676 9.16849C15.1676 10.9543 15.1611 11.1654 15.1287 11.8709C15.099 12.5228 14.9899 12.8772 14.8987 13.1127C14.7771 13.4249 14.6324 13.6477 14.3985 13.8813C14.1646 14.115 13.9415 14.26 13.6293 14.3815C13.3939 14.4733 13.0395 14.5819 12.3875 14.6116C11.6826 14.644 11.4709 14.6504 9.68512 14.6504C7.89935 14.6504 7.6882 14.644 6.98354 14.6116V14.6114ZM6.92817 2.5217C6.21629 2.55412 5.72985 2.66699 5.30503 2.8323C4.86535 3.00301 4.49263 3.23203 4.12046 3.60361C3.74828 3.9752 3.51985 4.34796 3.34915 4.78819C3.18384 5.21327 3.07096 5.69945 3.03854 6.41133C3.00559 7.12433 2.99805 7.35228 2.99805 9.16827C2.99805 10.9843 3.00559 11.2122 3.03854 11.9252C3.07096 12.6372 3.18384 13.1233 3.34915 13.5484C3.51985 13.9881 3.74834 14.3615 4.12046 14.7329C4.49258 15.1044 4.86481 15.3331 5.30503 15.5042C5.73065 15.6696 6.21629 15.7824 6.92817 15.8149C7.64155 15.8473 7.86913 15.8553 9.68512 15.8553C11.5011 15.8553 11.7291 15.8478 12.4421 15.8149C13.154 15.7824 13.6401 15.6696 14.0652 15.5042C14.5049 15.3331 14.8776 15.1045 15.2498 14.7329C15.622 14.3613 15.8499 13.9881 16.0211 13.5484C16.1864 13.1233 16.2998 12.6371 16.3317 11.9252C16.3641 11.2117 16.3717 10.9843 16.3717 9.16827C16.3717 7.35228 16.3641 7.12433 16.3317 6.41133C16.2993 5.6994 16.1864 5.213 16.0211 4.78819C15.8499 4.3485 15.6214 3.97579 15.2498 3.60361C14.8782 3.23144 14.5049 3.00301 14.0657 2.8323C13.6401 2.66699 13.1539 2.55358 12.4426 2.5217C11.7295 2.48912 11.5017 2.4812 9.68592 2.4812C7.8702 2.4812 7.64182 2.48874 6.92844 2.5217" fill="white"/>
</g>
<defs>
<radialGradient id="paint0_radial_1950_4042" cx="0" cy="0" r="1" gradientUnits="userSpaceOnUse" gradientTransform="translate(1.83145 17.7356) scale(22.8533)">
<stop offset="0.09" stop-color="#FA8F21"/>
<stop offset="0.78" stop-color="#D82D7E"/>
</radialGradient>
<radialGradient id="paint1_radial_1950_4042" cx="0" cy="0" r="1" gradientUnits="userSpaceOnUse" gradientTransform="translate(13.1345 17.1576) scale(20.1111)">
<stop offset="0.64" stop-color="#8C3AAA" stop-opacity="0"/>
<stop offset="1" stop-color="#8C3AAA"/>
</radialGradient>
<clipPath id="clip0_1950_4042">
<rect width="18" height="18" fill="white" transform="translate(0.666504 0.129883)"/>
</clipPath>
</defs>
</svg>
