<svg width="14" height="17" viewBox="0 0 14 17" fill="none" xmlns="http://www.w3.org/2000/svg">
<path fill-rule="evenodd" clip-rule="evenodd" d="M13.4001 6.52988C13.4001 2.99388 10.5361 0.129883 7.0001 0.129883C3.4641 0.129883 0.600098 2.99388 0.600098 6.52988C0.600098 6.64988 0.600098 6.76188 0.608096 6.88188C0.712096 9.72188 2.2001 12.9779 6.3121 15.9139C6.7201 16.2019 7.2801 16.2019 7.6881 15.9139C11.8001 12.9779 13.2881 9.72188 13.3921 6.88188C13.4001 6.76191 13.4001 6.64986 13.4001 6.52988ZM8.6969 8.22668C9.1473 7.77708 9.4001 7.16668 9.4001 6.52988C9.4001 5.89308 9.1465 5.28348 8.6969 4.83308C8.2473 4.38268 7.6369 4.12988 7.0001 4.12988C6.3633 4.12988 5.7537 4.38348 5.3033 4.83308C4.8529 5.28268 4.6001 5.89308 4.6001 6.52988C4.6001 7.16668 4.8529 7.77708 5.3033 8.22668C5.7529 8.67708 6.3633 8.92988 7.0001 8.92988C7.6361 8.92988 8.2465 8.67708 8.6969 8.22668Z" fill="#8C9196"/>
</svg>
