<svg width="12" height="17" viewBox="0 0 12 17" fill="none" xmlns="http://www.w3.org/2000/svg">
<path fill-rule="evenodd" clip-rule="evenodd" d="M0.0664062 1.32988C0.0664062 0.667141 0.603665 0.129883 1.26641 0.129883H10.0664C10.7291 0.129883 11.2664 0.667141 11.2664 1.32988V14.9299C11.2664 15.5926 10.7291 16.1299 10.0664 16.1299H1.26641C0.603665 16.1299 0.0664062 15.5926 0.0664062 14.9299V1.32988ZM1.66641 1.72988H9.66641V12.9299H1.66641V1.72988ZM4.86641 13.7299C4.42458 13.7299 4.06641 14.0881 4.06641 14.5299C4.06641 14.9717 4.42458 15.3299 4.86641 15.3299H6.46641C6.90823 15.3299 7.26641 14.9717 7.26641 14.5299C7.26641 14.0881 6.90823 13.7299 6.46641 13.7299H4.86641Z" fill="#8C9196"/>
</svg>
